<svg width="23" height="18" viewBox="0 0 23 18" fill="none" xmlns="http://www.w3.org/2000/svg">
<g clip-path="url(#clip20)">
<path d="M19.4705 1.58654C18.0045 0.913902 16.4325 0.418333 14.7889 0.1345C14.759 0.129022 14.7291 0.142712 14.7137 0.170091C14.5115 0.529672 14.2875 0.998775 14.1307 1.36749C12.3629 1.10283 10.6041 1.10283 8.87256 1.36749C8.7157 0.990579 8.48363 0.529672 8.28055 0.170091C8.26513 0.143625 8.23523 0.129936 8.2053 0.1345C6.56258 0.417426 4.99058 0.912995 3.52373 1.58654C3.51103 1.59201 3.50015 1.60115 3.49292 1.613C0.511167 6.06768 -0.305661 10.4129 0.0950476 14.7042C0.0968607 14.7252 0.108646 14.7453 0.124965 14.758C2.09224 16.2027 3.99789 17.0798 5.86814 17.6612C5.89808 17.6703 5.92979 17.6594 5.94884 17.6347C6.39125 17.0306 6.78562 16.3935 7.12375 15.7236C7.1437 15.6844 7.12466 15.6378 7.08387 15.6223C6.45834 15.385 5.8627 15.0957 5.28974 14.7672C5.24442 14.7407 5.24079 14.6759 5.28249 14.6448C5.40306 14.5545 5.52366 14.4605 5.63879 14.3656C5.65962 14.3482 5.68865 14.3446 5.71314 14.3555C9.47723 16.0741 13.5523 16.0741 17.272 14.3555C17.2965 14.3437 17.3255 14.3473 17.3472 14.3647C17.4624 14.4596 17.583 14.5545 17.7045 14.6448C17.7462 14.6759 17.7434 14.7407 17.6981 14.7672C17.1252 15.1021 16.5295 15.385 15.9031 15.6214C15.8623 15.6369 15.8442 15.6844 15.8641 15.7236C16.2095 16.3926 16.6039 17.0296 17.0381 17.6338C17.0562 17.6594 17.0889 17.6703 17.1188 17.6612C18.9981 17.0798 20.9038 16.2027 22.871 14.758C22.8883 14.7453 22.8992 14.7261 22.901 14.7051C23.3805 9.74386 22.0977 5.43431 19.5004 1.61391C19.494 1.60115 19.4832 1.59201 19.4705 1.58654ZM7.68586 12.0912C6.5526 12.0912 5.61884 11.0508 5.61884 9.77308C5.61884 8.49535 6.53449 7.45494 7.68586 7.45494C8.84625 7.45494 9.77098 8.50449 9.75284 9.77308C9.75284 11.0508 8.83718 12.0912 7.68586 12.0912ZM15.3283 12.0912C14.1951 12.0912 13.2613 11.0508 13.2613 9.77308C13.2613 8.49535 14.1769 7.45494 15.3283 7.45494C16.4887 7.45494 17.4134 8.50449 17.3953 9.77308C17.3953 11.0508 16.4887 12.0912 15.3283 12.0912Z" fill="#4C6DEE"/>
</g>
<defs>
<clipPath id="clip20">
<rect width="23" height="17.8169" fill="white"/>
</clipPath>
</defs>
</svg>
