<svg width="15" height="15" viewBox="0 0 15 15" fill="none" xmlns="http://www.w3.org/2000/svg">
<path d="M0.365011 8.5431C0.518458 8.50473 0.671906 8.5431 0.806171 8.639C1.30487 9.06098 1.8803 9.40624 2.51327 9.63641C3.10787 9.86658 3.76002 9.98166 4.45053 9.98166C6.00418 9.98166 7.42356 9.34869 8.44015 8.33211C9.45673 7.31552 10.0897 5.89614 10.0897 4.34249C10.0897 3.69034 9.97462 3.05737 9.78281 2.48195C9.57182 1.86816 9.26493 1.31192 8.86213 0.832396C8.6895 0.621406 8.72786 0.314513 8.93885 0.141885C9.07312 0.0459809 9.22656 0.00761915 9.38001 0.0459809C11.0104 0.48714 12.4298 1.46536 13.4464 2.76966C14.4246 4.05478 15 5.64679 15 7.37307C15 9.46378 14.156 11.3627 12.775 12.7437C11.394 14.1247 9.51428 14.9687 7.40438 14.9687C5.63975 14.9687 4.00937 14.3549 2.70508 13.3383C1.3816 12.3025 0.422555 10.8256 0.0197573 9.1377C-0.0569668 8.86917 0.0964794 8.60064 0.365011 8.5431Z" fill="black"/>
</svg>
