<svg width="17" height="17" viewBox="0 0 17 17" fill="none" xmlns="http://www.w3.org/2000/svg">
<path d="M8.49114 0.558907C8.34105 0.561253 8.19801 0.623054 8.09343 0.730745C7.98885 0.838437 7.93127 0.983221 7.93333 1.13332V2.83332C7.93227 2.90841 7.94614 2.98296 7.97414 3.05265C8.00214 3.12233 8.04371 3.18575 8.09644 3.23923C8.14916 3.2927 8.21199 3.33517 8.28127 3.36415C8.35055 3.39313 8.4249 3.40806 8.5 3.40806C8.57509 3.40806 8.64944 3.39313 8.71872 3.36415C8.788 3.33517 8.85083 3.2927 8.90355 3.23923C8.95628 3.18575 8.99785 3.12233 9.02585 3.05265C9.05385 2.98296 9.06773 2.90841 9.06666 2.83332V1.13332C9.0677 1.05751 9.05352 0.982256 9.02495 0.912023C8.99638 0.84179 8.95401 0.778004 8.90034 0.724442C8.84668 0.67088 8.78281 0.628631 8.71252 0.600197C8.64223 0.571763 8.56695 0.557723 8.49114 0.558907ZM3.28489 2.71932C3.17226 2.71957 3.06225 2.75338 2.96892 2.81643C2.87558 2.87948 2.80315 2.96891 2.76087 3.07331C2.71859 3.1777 2.70837 3.29233 2.73153 3.40256C2.75469 3.51279 2.81017 3.61362 2.89088 3.69218L4.09284 4.89413C4.14505 4.94851 4.20759 4.99193 4.2768 5.02184C4.34601 5.05175 4.42048 5.06755 4.49587 5.06832C4.57126 5.06909 4.64605 5.0548 4.71585 5.0263C4.78565 4.99781 4.84906 4.95567 4.90237 4.90236C4.95568 4.84905 4.99782 4.78564 5.02631 4.71584C5.05481 4.64604 5.0691 4.57125 5.06833 4.49586C5.06756 4.42047 5.05176 4.346 5.02185 4.27679C4.99194 4.20758 4.94852 4.14504 4.89414 4.09283L3.69219 2.89087C3.63925 2.83646 3.57592 2.79323 3.50595 2.76376C3.43599 2.73429 3.36081 2.71918 3.28489 2.71932ZM13.6974 2.71932C13.5502 2.72371 13.4104 2.78524 13.3078 2.89087L12.1059 4.09283C12.0515 4.14504 12.0081 4.20758 11.9781 4.27679C11.9482 4.346 11.9324 4.42047 11.9317 4.49586C11.9309 4.57125 11.9452 4.64604 11.9737 4.71583C12.0022 4.78563 12.0443 4.84905 12.0976 4.90236C12.1509 4.95567 12.2143 4.99781 12.2841 5.0263C12.3539 5.0548 12.4287 5.06908 12.5041 5.06832C12.5795 5.06755 12.654 5.05175 12.7232 5.02184C12.7924 4.99193 12.8549 4.94851 12.9072 4.89413L14.1091 3.69218C14.191 3.61258 14.2469 3.5101 14.2696 3.39818C14.2922 3.28625 14.2805 3.17009 14.236 3.06492C14.1915 2.95976 14.1163 2.87049 14.0201 2.80882C13.924 2.74715 13.8115 2.71596 13.6974 2.71932ZM8.5 4.53332C7.44797 4.53332 6.43903 4.95124 5.69514 5.69513C4.95125 6.43903 4.53333 7.44796 4.53333 8.49999C4.53333 9.55201 4.95125 10.561 5.69514 11.3048C6.43903 12.0487 7.44797 12.4667 8.5 12.4667C9.55202 12.4667 10.561 12.0487 11.3049 11.3048C12.0487 10.561 12.4667 9.55201 12.4667 8.49999C12.4667 7.44796 12.0487 6.43903 11.3049 5.69513C10.561 4.95124 9.55202 4.53332 8.5 4.53332ZM1.13333 7.93332C1.05824 7.93226 0.983689 7.94613 0.914007 7.97413C0.844325 8.00213 0.780903 8.0437 0.727427 8.09643C0.673951 8.14916 0.631487 8.21198 0.602503 8.28126C0.573519 8.35054 0.558594 8.42489 0.558594 8.49999C0.558594 8.57509 0.573519 8.64943 0.602503 8.71871C0.631487 8.78799 0.673951 8.85082 0.727427 8.90355C0.780903 8.95627 0.844325 8.99784 0.914007 9.02584C0.983689 9.05384 1.05824 9.06772 1.13333 9.06665H2.83333C2.90842 9.06772 2.98297 9.05384 3.05266 9.02584C3.12234 8.99784 3.18576 8.95627 3.23924 8.90355C3.29271 8.85082 3.33518 8.78799 3.36416 8.71871C3.39314 8.64943 3.40807 8.57509 3.40807 8.49999C3.40807 8.42489 3.39314 8.35054 3.36416 8.28126C3.33518 8.21198 3.29271 8.14916 3.23924 8.09643C3.18576 8.0437 3.12234 8.00213 3.05266 7.97413C2.98297 7.94613 2.90842 7.93226 2.83333 7.93332H1.13333ZM14.1667 7.93332C14.0916 7.93226 14.017 7.94613 13.9473 7.97413C13.8777 8.00213 13.8142 8.0437 13.7608 8.09643C13.7073 8.14916 13.6648 8.21198 13.6358 8.28126C13.6069 8.35054 13.5919 8.42489 13.5919 8.49999C13.5919 8.57509 13.6069 8.64943 13.6358 8.71871C13.6648 8.78799 13.7073 8.85082 13.7608 8.90355C13.8142 8.95627 13.8777 8.99784 13.9473 9.02584C14.017 9.05384 14.0916 9.06772 14.1667 9.06665H15.8667C15.9418 9.06772 16.0163 9.05384 16.086 9.02584C16.1557 8.99784 16.2191 8.95627 16.2726 8.90355C16.326 8.85082 16.3685 8.78799 16.3975 8.71871C16.4265 8.64943 16.4414 8.57509 16.4414 8.49999C16.4414 8.42489 16.4265 8.35054 16.3975 8.28126C16.3685 8.21198 16.326 8.14916 16.2726 8.09643C16.2191 8.0437 16.1557 8.00213 16.086 7.97413C16.0163 7.94613 15.9418 7.93226 15.8667 7.93332H14.1667ZM4.48242 11.9343C4.3352 11.9387 4.19547 12.0002 4.09284 12.1058L2.89088 13.3078C2.8365 13.36 2.79308 13.4226 2.76317 13.4918C2.73326 13.561 2.71746 13.6354 2.71669 13.7108C2.71593 13.7862 2.73021 13.861 2.75871 13.9308C2.78721 14.0006 2.82934 14.064 2.88265 14.1173C2.93597 14.1706 2.99938 14.2128 3.06918 14.2413C3.13898 14.2698 3.21376 14.2841 3.28915 14.2833C3.36454 14.2825 3.43902 14.2667 3.50822 14.2368C3.57743 14.2069 3.63997 14.1635 3.69219 14.1091L4.89414 12.9071C4.97602 12.8276 5.03195 12.7251 5.0546 12.6131C5.07724 12.5012 5.06554 12.3851 5.02103 12.2799C4.97653 12.1747 4.90129 12.0855 4.80518 12.0238C4.70907 11.9621 4.59657 11.9309 4.48242 11.9343ZM12.501 11.9343C12.3882 11.9343 12.2781 11.968 12.1846 12.0309C12.0911 12.0939 12.0185 12.1833 11.9761 12.2878C11.9336 12.3922 11.9233 12.5069 11.9464 12.6173C11.9696 12.7276 12.0251 12.8285 12.1059 12.9071L13.3078 14.1091C13.36 14.1635 13.4226 14.2069 13.4918 14.2368C13.561 14.2667 13.6355 14.2825 13.7108 14.2833C13.7862 14.2841 13.861 14.2698 13.9308 14.2413C14.0006 14.2128 14.064 14.1706 14.1173 14.1173C14.1706 14.064 14.2128 14.0006 14.2413 13.9308C14.2698 13.861 14.2841 13.7862 14.2833 13.7108C14.2825 13.6354 14.2667 13.561 14.2368 13.4918C14.2069 13.4226 14.1635 13.36 14.1091 13.3078L12.9072 12.1058C12.8544 12.0516 12.7912 12.0084 12.7214 11.9789C12.6517 11.9495 12.5767 11.9343 12.501 11.9343ZM8.49114 13.5922C8.34105 13.5946 8.19801 13.6564 8.09343 13.7641C7.98885 13.8718 7.93127 14.0166 7.93333 14.1667V15.8667C7.93227 15.9417 7.94614 16.0163 7.97414 16.086C8.00214 16.1557 8.04371 16.2191 8.09644 16.2726C8.14916 16.326 8.21199 16.3685 8.28127 16.3975C8.35055 16.4265 8.4249 16.4414 8.5 16.4414C8.57509 16.4414 8.64944 16.4265 8.71872 16.3975C8.788 16.3685 8.85083 16.326 8.90355 16.2726C8.95628 16.2191 8.99785 16.1557 9.02585 16.086C9.05385 16.0163 9.06773 15.9417 9.06666 15.8667V14.1667C9.0677 14.0908 9.05352 14.0156 9.02495 13.9454C8.99638 13.8751 8.95401 13.8113 8.90034 13.7578C8.84668 13.7042 8.78281 13.662 8.71252 13.6335C8.64223 13.6051 8.56695 13.5911 8.49114 13.5922Z" fill="white"/>
</svg>
