<svg width="22" height="18" viewBox="0 0 22 18" fill="none" xmlns="http://www.w3.org/2000/svg">
<path d="M22 2.17725C21.1906 2.53658 20.3207 2.77858 19.4077 2.88767C20.3399 2.32942 21.0558 1.44483 21.3923 0.390667C20.5205 0.907667 19.5543 1.2835 18.5258 1.48608C17.7036 0.608834 16.5293 0.060667 15.2313 0.060667C12.3172 0.060667 10.1759 2.7795 10.8341 5.60192C7.084 5.414 3.75833 3.61733 1.53175 0.886584C0.34925 2.91517 0.9185 5.56892 2.92783 6.91275C2.189 6.88892 1.49233 6.68633 0.884583 6.34808C0.835083 8.439 2.33383 10.3952 4.5045 10.8306C3.86925 11.0029 3.1735 11.0433 2.46583 10.9076C3.03967 12.7006 4.70617 14.005 6.6825 14.0417C4.785 15.5294 2.39433 16.194 0 15.9117C1.99742 17.1923 4.37067 17.9393 6.919 17.9393C15.2992 17.9393 20.0338 10.8617 19.7477 4.51383C20.6296 3.87675 21.395 3.082 22 2.17725Z" fill="#009FED"/>
</svg>
